The Hunger (1983)

Director: Tony Scott

The Hunger is a 1983 British horror film and the directorial debut of Tony Scott. It is the story of an alternative love triangle between a doctor (Susan Sarandon) who specializes in sleep and aging research and a counter-culture vampire couple (Catherine Deneuve and David Bowie). The film is a loose adaptation of the 1981 novel of the same name by Whitley Strieber, with a screenplay by Ivan Davis and Michael Thomas. The cinematography was by Stephen Goldblatt.

The film was screened out of competition at the 1983 Cannes Film Festival.

The Hunger was not particularly well-received upon its initial release, and was attacked by many critics for being heavy on atmosphere and visuals but slow on pace and plot. For example, Roger Ebert, of the Chicago Sun-Times, described the film as "an agonizingly bad vampire movie". However, the film soon found a cult following that responded to its dark, glamorous atmosphere. The Bauhaus song "Bela Lugosi's Dead" plays over the introductory credits and beginning. The film is popular with some segments of the goth subculture and inspired a short-lived TV series of the same name.

Camille Paglia writes that The Hunger comes close to being a masterpiece of a "classy genre of vampire film", but that it is "ruined by horrendous errors, as when the regal Catherine Deneuve is made to crawl around on all fours, slavering over cut throats."

Media Info:
General
Complete name                    : J:\Seeding\The Hunger (1983)[DVDRip][big_dad_e™]\The Hunger (1983)[DVDRip][big_dad_e™].AVI
Format                           : AVI
Format/Info                      : Audio Video Interleave
File size                        : 1.23 GiB
Duration                         : 1h 36mn
Overall bit rate                 : 1 829 Kbps

Video
ID                               : 0
Format                           : MPEG-4 Visual
Format profile                   : Simple@L3
Format settings, BVOP            : No
Format settings, QPel            : No
Format settings, GMC             : No warppoints
Format settings, Matrix          : Default (H.263)
Codec ID                         : XVID
Codec ID/Hint                    : XviD
Duration                         : 1h 36mn
Bit rate                         : 1 496 Kbps
Width                            : 702 pixels
Height                           : 364 pixels
Display aspect ratio             : 2.25:1
Frame rate                       : 23.976 fps
Color space                      : YUV
Chroma subsampling               : 4:2:0
Bit depth                        : 8 bits
Scan type                        : Progressive
Bits/(Pixel*Frame)               : 0.244
Stream size                      : 1.01 GiB (82%)
Writing library                  : XviD 1.1.2 (UTC 2006-11-01)

Audio
ID                               : 1
Format                           : MPEG Audio
Format version                   : Version 1
Format profile                   : Layer 3
Mode                             : Joint stereo
Mode extension                   : MS Stereo
Codec ID                         : 55
Codec ID/Hint                    : MP3
Duration                         : 1h 36mn
Bit rate mode                    : Constant
Bit rate                         : 320 Kbps
Channel(s)                       : 2 channels
Sampling rate                    : 48.0 KHz
Stream size                      : 221 MiB (17%)
Alignment                        : Split accross interleaves
Interleave, duration             : 24 ms (0.58 video frame)
Interleave, preload duration     : 239 ms
Writing library                  : LAME3.98

File Scan:
Malwarebytes' Anti-Malware 1.50.1.1100
www.malwarebytes.org

Database version: 5420

Windows 5.1.2600 Service Pack 3
Internet Explorer 8.0.6001.18702

12/29/2010 6:48:45 PM
mbam-log-2010-12-29 (18-48-45).txt

Scan type: Quick scan
Objects scanned: 5
Time elapsed: 49 second(s)

Memory Processes Infected: 0
Memory Modules Infected: 0
Registry Keys Infected: 0
Registry Values Infected: 0
Registry Data Items Infected: 0
Folders Infected: 0
Files Infected: 0

Memory Processes Infected:
(No malicious items detected)

Memory Modules Infected:
(No malicious items detected)

Registry Keys Infected:
(No malicious items detected)

Registry Values Infected:
(No malicious items detected)

Registry Data Items Infected:
(No malicious items detected)

Folders Infected:
(No malicious items detected)

Files Infected:
(No malicious items detected)

When using TPB please read these important notes:
  
01- Anti-malware apps may warn about keygens, patches, cracks, etc., because of 
    their capabilities, (generating codes, etc.). Sometimes they're added to 
    the virus/spyware database and will be detected as malware. If you don't trust
    the keygens, patches, cracks, etc., don't use them. 
    
02- Before running .exe-files, keygens, patches, cracks, etc., always check first 
    if they can be unpacked. Often some third party added a virus to the 
    original file, repacked it and uploaded it again.

03- Letting anti-malware apps send scan results to their companies can cause
    keygens, patches, cracks, etc., to be added to their virus-database.

04- Firewalls which are set to automatically determine connections will allow 
    apps & malware!. Avoid this by manually configuring your firewall.

05- Usually (new) torrents with many downloads and seeders in a brief period is
    suspicious! Torrents with the Skull & Crossbones icon are trusted.

06- Some people use multiple accounts and post fake comments 
    and/or files trying to spread confusion. They seldom seriously
    comment or have any torrents, or a just a few to look passable.

07- Clicking on unknown links can cause malware to be installed on your machine.
  
08- In general often there are more fake and negative comments than reliable and
    positive comments.

09- In some countries uploading/downloading copyright protected material is 
    forbidden, but showing some appreciation to reliable up-loaders is not.

10- Posting fake and negative comments or fake/infected uploads on TPB can result
    in getting banned from TPB!

Requests?  Find me on SuprBay. http://forum.suprbay.org/member.php?action=profile&uid=91870
 

For reporting bad or suspicious torrents:  
http://forum.suprbay.org/forumdisplay.php?fid=29

For more of my torrents: 
https://thepiratebay.org/user/big_dad_e/  (Secured)

All torrents scanned with:
Norton Anti-virus
Malwarebytes' Anti-malware
 
http://www.pirate-party.us/

ALWAYS SEED & THANKS SEEDERS!